<?xml version="1.0"?>
<!-- Generated by SVGo -->
<svg width="410.000mm" height="160.000mm"
     viewBox="0.000 0.000 410.000 160.000"
     xmlns="http://www.w3.org/2000/svg" 
     xmlns:xlink="http://www.w3.org/1999/xlink">
<polygon points="402.000,5.001 402.236,5.010 402.470,5.037 402.701,5.083 402.928,5.147 403.149,5.229 403.362,5.327 403.568,5.443 403.764,5.573 403.949,5.719 404.122,5.879 404.282,6.052 404.428,6.237 404.558,6.433 404.673,6.639 404.772,6.852 404.854,7.073 404.918,7.300 404.964,7.531 404.991,7.765 405.000,8.001 405.000,152.000 404.991,152.236 404.964,152.470 404.918,152.701 404.854,152.927 404.772,153.148 404.673,153.362 404.558,153.568 404.428,153.764 404.282,153.949 404.122,154.122 403.949,154.282 403.764,154.427 403.568,154.558 403.362,154.673 403.149,154.772 402.928,154.853 402.701,154.917 402.470,154.963 402.236,154.991 402.000,155.000 8.001,155.000 7.765,154.991 7.531,154.963 7.300,154.917 7.073,154.853 6.852,154.772 6.639,154.673 6.433,154.558 6.237,154.427 6.052,154.282 5.879,154.122 5.719,153.949 5.573,153.764 5.443,153.568 5.327,153.362 5.229,153.148 5.147,152.927 5.083,152.701 5.037,152.470 5.010,152.236 5.000,152.000 5.001,8.001 5.010,7.765 5.037,7.531 5.083,7.300 5.147,7.073 5.229,6.852 5.327,6.639 5.443,6.433 5.573,6.237 5.719,6.052 5.879,5.879 6.052,5.719 6.237,5.573 6.433,5.443 6.639,5.327 6.852,5.229 7.073,5.147 7.300,5.083 7.531,5.037 7.765,5.010 8.001,5.000" style="fill:none;stroke-width:0.050000mm;stroke:black"/>
<polygon points="239.170,125.729 239.329,126.635 237.631,126.935 238.191,130.116 236.689,130.381 236.585,129.789 237.373,129.651 236.835,126.598 236.047,126.737 235.873,125.752 222.086,128.182 222.260,129.168 221.472,129.307 222.010,132.360 222.798,132.221 222.902,132.812 221.400,133.077 220.840,129.896 219.141,130.194 218.981,129.289 215.731,129.861 215.891,130.768 214.192,131.068 214.753,134.249 213.941,134.392 214.427,137.149 215.239,137.006 216.328,143.181 218.027,142.881 218.197,143.847 221.447,143.274 221.277,142.308 222.975,142.009 222.199,137.607 223.701,137.342 223.805,137.933 223.017,138.072 223.556,141.125 224.344,140.986 224.517,141.971 238.305,139.539 238.131,138.555 238.919,138.416 238.380,135.363 237.593,135.502 237.489,134.911 238.990,134.646 239.766,139.048 241.465,138.749 241.635,139.714 244.885,139.141 244.715,138.176 246.414,137.876 245.325,131.701 246.138,131.558 245.651,128.801 244.839,128.944 244.278,125.763 242.579,126.062 242.419,125.156" style="fill:none;stroke-width:0.050000mm;stroke:black"/>
<polygon points="161.337,128.020 160.549,127.881 160.010,130.934 160.798,131.073 159.791,136.785 159.003,136.646 158.465,139.699 159.253,139.838 159.079,140.822 172.867,143.253 173.040,142.269 173.828,142.408 174.366,139.355 173.578,139.216 174.586,133.504 175.373,133.643 175.912,130.590 175.124,130.450 175.298,129.466 161.510,127.035" style="fill:none;stroke-width:0.050000mm;stroke:black"/>
<polygon points="124.534,120.749 122.835,120.449 121.746,126.624 120.934,126.481 120.448,129.238 121.260,129.381 120.699,132.562 122.398,132.862 122.238,133.768 125.488,134.341 125.648,133.435 127.347,133.734 127.908,130.552 129.408,130.818 129.305,131.409 128.516,131.270 127.979,134.323 128.766,134.462 128.593,135.447 142.381,137.878 142.554,136.893 143.342,137.032 143.880,133.979 143.093,133.840 143.197,133.249 144.699,133.514 144.138,136.695 145.836,136.995 145.677,137.901 148.927,138.474 149.086,137.568 150.785,137.867 151.346,134.686 152.158,134.830 152.645,132.072 151.832,131.929 152.921,125.754 151.222,125.455 151.392,124.489 148.143,123.916 147.972,124.882 146.274,124.582 145.497,128.984 143.996,128.718 144.100,128.128 144.888,128.266 145.426,125.214 144.638,125.075 144.812,124.091 131.024,121.660 130.851,122.644 130.063,122.505 129.525,125.558 130.312,125.697 130.208,126.288 128.706,126.023 129.483,121.621 127.784,121.322 127.954,120.357 124.704,119.784" style="fill:none;stroke-width:0.050000mm;stroke:black"/>
<polygon points="254.917,122.394 255.091,123.379 254.303,123.518 254.841,126.571 255.629,126.432 256.636,132.144 255.848,132.283 256.387,135.336 257.174,135.197 257.347,136.182 271.136,133.750 270.962,132.766 271.750,132.627 271.211,129.574 270.424,129.712 269.416,124.001 270.204,123.862 269.666,120.809 268.878,120.948 268.704,119.963" style="fill:none;stroke-width:0.050000mm;stroke:black"/>
<polygon points="100.365,117.269 99.577,117.130 99.039,120.183 99.826,120.322 98.819,126.034 98.031,125.895 97.493,128.948 98.281,129.087 98.107,130.071 111.895,132.502 112.068,131.518 112.856,131.657 113.394,128.604 112.607,128.465 113.614,122.753 114.402,122.892 114.940,119.839 114.152,119.700 114.326,118.715 100.538,116.284" style="fill:none;stroke-width:0.050000mm;stroke:black"/>
<polygon points="278.368,118.259 278.542,119.244 277.754,119.383 278.292,122.436 279.080,122.297 280.087,128.009 279.299,128.147 279.838,131.201 280.625,131.062 280.799,132.047 294.586,129.615 294.413,128.631 295.201,128.492 294.662,125.439 293.874,125.578 292.867,119.866 293.655,119.727 293.117,116.674 292.329,116.813 292.155,115.828" style="fill:none;stroke-width:0.050000mm;stroke:black"/>
<polygon points="17.051,115.633 17.051,116.633 16.251,116.633 16.251,119.733 17.051,119.733 17.051,125.533 16.251,125.533 16.251,128.633 17.051,128.633 17.051,129.633 31.051,129.633 31.051,128.633 31.851,128.633 31.851,125.533 31.051,125.533 31.051,119.733 31.851,119.733 31.851,116.633 31.051,116.633 31.051,115.633" style="fill:none;stroke-width:0.050000mm;stroke:black"/>
<polygon points="52.769,115.633 52.769,116.633 51.969,116.633 51.969,119.733 52.769,119.733 52.769,125.533 51.969,125.533 51.969,128.633 52.769,128.633 52.769,129.633 66.769,129.633 66.769,128.633 67.569,128.633 67.569,125.533 66.769,125.533 66.769,119.733 67.569,119.733 67.569,116.633 66.769,116.633 66.769,115.633" style="fill:none;stroke-width:0.050000mm;stroke:black"/>
<polygon points="76.582,115.633 76.582,116.633 75.782,116.633 75.782,119.733 76.582,119.733 76.582,125.533 75.782,125.533 75.782,128.633 76.582,128.633 76.582,129.633 90.582,129.633 90.582,128.633 91.382,128.633 91.382,125.533 90.582,125.533 90.582,119.733 91.382,119.733 91.382,116.633 90.582,116.633 90.582,115.633" style="fill:none;stroke-width:0.050000mm;stroke:black"/>
<polygon points="304.229,115.633 304.229,116.633 303.429,116.633 303.429,119.733 304.229,119.733 304.229,125.533 303.429,125.533 303.429,128.633 304.229,128.633 304.229,129.633 318.229,129.633 318.229,128.633 319.029,128.633 319.029,125.533 318.229,125.533 318.229,119.733 319.029,119.733 319.029,116.633 318.229,116.633 318.229,115.633" style="fill:none;stroke-width:0.050000mm;stroke:black"/>
<polygon points="341.377,115.633 341.377,116.633 340.577,116.633 340.577,119.733 341.377,119.733 341.377,125.533 340.577,125.533 340.577,128.633 341.377,128.633 341.377,129.633 355.377,129.633 355.377,128.633 356.177,128.633 356.177,125.533 355.377,125.533 355.377,119.733 356.177,119.733 356.177,116.633 355.377,116.633 355.377,115.633" style="fill:none;stroke-width:0.050000mm;stroke:black"/>
<polygon points="360.427,115.633 360.427,116.633 359.627,116.633 359.627,119.733 360.427,119.733 360.427,125.533 359.627,125.533 359.627,128.633 360.427,128.633 360.427,129.633 374.427,129.633 374.427,128.633 375.227,128.633 375.227,125.533 374.427,125.533 374.427,119.733 375.227,119.733 375.227,116.633 374.427,116.633 374.427,115.633" style="fill:none;stroke-width:0.050000mm;stroke:black"/>
<polygon points="379.477,115.633 379.477,116.633 378.677,116.633 378.677,119.733 379.477,119.733 379.477,125.533 378.677,125.533 378.677,128.633 379.477,128.633 379.477,129.633 393.477,129.633 393.477,128.633 394.277,128.633 394.277,125.533 393.477,125.533 393.477,119.733 394.277,119.733 394.277,116.633 393.477,116.633 393.477,115.633" style="fill:none;stroke-width:0.050000mm;stroke:black"/>
<polygon points="206.609,111.862 206.782,112.847 205.994,112.986 206.533,116.039 207.321,115.900 208.328,121.612 207.540,121.751 208.078,124.804 208.866,124.665 209.040,125.650 222.827,123.219 222.653,122.234 223.441,122.095 222.903,119.042 222.115,119.181 221.108,113.469 221.896,113.330 221.357,110.277 220.570,110.416 220.396,109.431" style="fill:none;stroke-width:0.050000mm;stroke:black"/>
<polygon points="158.523,108.474 157.735,108.335 157.196,111.388 157.984,111.527 156.977,117.238 156.189,117.100 155.651,120.152 156.439,120.291 156.265,121.276 170.052,123.707 170.226,122.722 171.014,122.861 171.552,119.808 170.764,119.670 171.772,113.958 172.559,114.097 173.098,111.044 172.310,110.905 172.484,109.920 158.696,107.489" style="fill:none;stroke-width:0.050000mm;stroke:black"/>
<polygon points="225.369,108.554 225.543,109.539 224.755,109.678 225.293,112.731 226.081,112.592 227.088,118.304 226.301,118.443 226.839,121.496 227.627,121.357 227.800,122.342 241.588,119.911 241.414,118.926 242.202,118.787 241.664,115.734 240.876,115.873 239.869,110.161 240.656,110.022 240.118,106.969 239.330,107.108 239.157,106.123" style="fill:none;stroke-width:0.050000mm;stroke:black"/>
<polygon points="139.762,105.166 138.974,105.027 138.436,108.080 139.224,108.219 138.217,113.930 137.429,113.792 136.890,116.844 137.678,116.983 137.505,117.968 151.292,120.399 151.466,119.414 152.253,119.553 152.792,116.500 152.004,116.362 153.011,110.650 153.799,110.789 154.337,107.736 153.549,107.597 153.723,106.612 139.936,104.181" style="fill:none;stroke-width:0.050000mm;stroke:black"/>
<polygon points="244.130,105.246 244.303,106.231 243.516,106.370 244.054,109.423 244.842,109.284 245.849,114.996 245.061,115.135 245.599,118.188 246.387,118.049 246.561,119.034 260.347,116.603 260.174,115.618 260.962,115.479 260.424,112.426 259.636,112.565 258.629,106.853 259.417,106.714 258.879,103.661 258.090,103.800 257.917,102.815" style="fill:none;stroke-width:0.050000mm;stroke:black"/>
<polygon points="121.001,101.858 120.214,101.719 119.675,104.772 120.463,104.911 119.456,110.622 118.668,110.484 118.130,113.536 118.918,113.675 118.744,114.660 132.531,117.091 132.705,116.106 133.493,116.245 134.031,113.192 133.243,113.054 134.250,107.342 135.038,107.481 135.577,104.428 134.789,104.289 134.962,103.304 121.175,100.873" style="fill:none;stroke-width:0.050000mm;stroke:black"/>
<polygon points="262.890,101.938 263.064,102.923 262.276,103.062 262.815,106.115 263.602,105.976 264.610,111.688 263.822,111.827 264.360,114.880 265.148,114.741 265.322,115.726 279.109,113.295 278.935,112.310 279.723,112.171 279.185,109.118 278.397,109.257 277.390,103.545 278.178,103.406 277.639,100.353 276.851,100.492 276.678,99.507" style="fill:none;stroke-width:0.050000mm;stroke:black"/>
<polygon points="102.241,98.550 101.453,98.411 100.915,101.464 101.702,101.603 100.695,107.314 99.907,107.176 99.369,110.228 100.157,110.367 99.983,111.352 113.771,113.783 113.944,112.798 114.732,112.937 115.270,109.884 114.483,109.746 115.490,104.034 116.278,104.173 116.816,101.120 116.028,100.981 116.202,99.996 102.414,97.565" style="fill:none;stroke-width:0.050000mm;stroke:black"/>
<polygon points="281.651,98.630 281.825,99.615 281.037,99.754 281.575,102.807 282.363,102.668 283.370,108.380 282.582,108.519 283.121,111.572 283.908,111.433 284.082,112.418 297.869,109.987 297.696,109.002 298.484,108.863 297.945,105.810 297.157,105.949 296.150,100.237 296.938,100.098 296.400,97.045 295.612,97.184 295.438,96.199" style="fill:none;stroke-width:0.050000mm;stroke:black"/>
<polygon points="49.912,96.583 49.912,97.583 49.112,97.583 49.112,100.683 49.912,100.683 49.912,101.283 48.387,101.283 48.387,98.053 46.662,98.053 46.662,97.133 43.362,97.133 43.362,98.053 41.637,98.053 41.637,101.283 40.812,101.283 40.812,104.083 41.637,104.083 41.637,110.353 43.362,110.353 43.362,111.333 46.662,111.333 46.662,110.353 48.387,110.353 48.387,105.883 49.912,105.883 49.912,106.483 49.112,106.483 49.112,109.583 49.912,109.583 49.912,110.583 63.912,110.583 63.912,109.583 64.712,109.583 64.712,106.483 63.912,106.483 63.912,105.883 65.437,105.883 65.437,110.353 67.162,110.353 67.162,111.333 70.462,111.333 70.462,110.353 72.187,110.353 72.187,104.083 73.012,104.083 73.012,101.283 72.187,101.283 72.187,98.053 70.462,98.053 70.462,97.133 67.162,97.133 67.162,98.053 65.437,98.053 65.437,101.283 63.912,101.283 63.912,100.683 64.712,100.683 64.712,97.583 63.912,97.583 63.912,96.583" style="fill:none;stroke-width:0.050000mm;stroke:black"/>
<polygon points="331.852,96.583 331.852,97.583 331.052,97.583 331.052,100.683 331.852,100.683 331.852,101.283 330.327,101.283 330.327,98.053 328.602,98.053 328.602,97.133 325.302,97.133 325.302,98.053 323.577,98.053 323.577,101.283 322.752,101.283 322.752,104.083 323.577,104.083 323.577,110.353 325.302,110.353 325.302,111.333 328.602,111.333 328.602,110.353 330.327,110.353 330.327,105.883 331.852,105.883 331.852,106.483 331.052,106.483 331.052,109.583 331.852,109.583 331.852,110.583 345.852,110.583 345.852,109.583 346.652,109.583 346.652,106.483 345.852,106.483 345.852,105.883 347.377,105.883 347.377,110.353 349.102,110.353 349.102,111.333 352.402,111.333 352.402,110.353 354.127,110.353 354.127,104.083 354.952,104.083 354.952,101.283 354.127,101.283 354.127,98.053 352.402,98.053 352.402,97.133 349.102,97.133 349.102,98.053 347.377,98.053 347.377,101.283 345.852,101.283 345.852,100.683 346.652,100.683 346.652,97.583 345.852,97.583 345.852,96.583" style="fill:none;stroke-width:0.050000mm;stroke:black"/>
<polygon points="17.051,96.583 17.051,97.583 16.251,97.583 16.251,100.683 17.051,100.683 17.051,106.483 16.251,106.483 16.251,109.583 17.051,109.583 17.051,110.583 31.051,110.583 31.051,109.583 31.851,109.583 31.851,106.483 31.051,106.483 31.051,100.683 31.851,100.683 31.851,97.583 31.051,97.583 31.051,96.583" style="fill:none;stroke-width:0.050000mm;stroke:black"/>
<polygon points="80.868,96.583 80.868,97.583 80.068,97.583 80.068,100.683 80.868,100.683 80.868,106.483 80.068,106.483 80.068,109.583 80.868,109.583 80.868,110.583 94.868,110.583 94.868,109.583 95.668,109.583 95.668,106.483 94.868,106.483 94.868,100.683 95.668,100.683 95.668,97.583 94.868,97.583 94.868,96.583" style="fill:none;stroke-width:0.050000mm;stroke:black"/>
<polygon points="303.277,96.583 303.277,97.583 302.477,97.583 302.477,100.683 303.277,100.683 303.277,106.483 302.477,106.483 302.477,109.583 303.277,109.583 303.277,110.583 317.277,110.583 317.277,109.583 318.077,109.583 318.077,106.483 317.277,106.483 317.277,100.683 318.077,100.683 318.077,97.583 317.277,97.583 317.277,96.583" style="fill:none;stroke-width:0.050000mm;stroke:black"/>
<polygon points="360.427,96.583 360.427,97.583 359.627,97.583 359.627,100.683 360.427,100.683 360.427,106.483 359.627,106.483 359.627,109.583 360.427,109.583 360.427,110.583 374.427,110.583 374.427,109.583 375.227,109.583 375.227,106.483 374.427,106.483 374.427,100.683 375.227,100.683 375.227,97.583 374.427,97.583 374.427,96.583" style="fill:none;stroke-width:0.050000mm;stroke:black"/>
<polygon points="379.477,96.583 379.477,97.583 378.677,97.583 378.677,100.683 379.477,100.683 379.477,106.483 378.677,106.483 378.677,109.583 379.477,109.583 379.477,110.583 393.477,110.583 393.477,109.583 394.277,109.583 394.277,106.483 393.477,106.483 393.477,100.683 394.277,100.683 394.277,97.583 393.477,97.583 393.477,96.583" style="fill:none;stroke-width:0.050000mm;stroke:black"/>
<polygon points="215.989,91.158 216.163,92.143 215.375,92.282 215.913,95.335 216.701,95.196 217.708,100.908 216.920,101.047 217.459,104.100 218.246,103.961 218.420,104.946 232.207,102.515 232.034,101.530 232.822,101.391 232.283,98.338 231.495,98.477 230.488,92.765 231.276,92.626 230.738,89.573 229.950,89.712 229.776,88.727" style="fill:none;stroke-width:0.050000mm;stroke:black"/>
<polygon points="153.363,88.514 152.576,88.375 152.037,91.428 152.825,91.567 151.818,97.279 151.030,97.140 150.492,100.193 151.280,100.332 151.106,101.317 164.893,103.748 165.067,102.763 165.855,102.902 166.393,99.849 165.605,99.710 166.612,93.998 167.400,94.137 167.939,91.084 167.151,90.945 167.324,89.960 153.537,87.529" style="fill:none;stroke-width:0.050000mm;stroke:black"/>
<polygon points="234.750,87.850 234.923,88.835 234.135,88.974 234.674,92.027 235.462,91.888 236.469,97.600 235.681,97.739 236.219,100.792 237.007,100.653 237.181,101.638 250.968,99.207 250.794,98.222 251.582,98.083 251.044,95.030 250.256,95.169 249.249,89.457 250.037,89.318 249.498,86.265 248.711,86.404 248.537,85.419" style="fill:none;stroke-width:0.050000mm;stroke:black"/>
<polygon points="134.603,85.206 133.815,85.067 133.277,88.120 134.064,88.259 133.057,93.971 132.269,93.832 131.731,96.885 132.519,97.024 132.345,98.009 146.133,100.440 146.306,99.455 147.094,99.594 147.632,96.541 146.845,96.402 147.852,90.690 148.640,90.829 149.178,87.776 148.390,87.637 148.564,86.652 134.776,84.221" style="fill:none;stroke-width:0.050000mm;stroke:black"/>
<polygon points="253.510,84.542 253.684,85.527 252.896,85.666 253.434,88.719 254.222,88.580 255.229,94.292 254.441,94.431 254.980,97.484 255.768,97.345 255.941,98.330 269.729,95.899 269.555,94.914 270.343,94.775 269.804,91.722 269.017,91.861 268.009,86.149 268.797,86.010 268.259,82.957 267.471,83.096 267.297,82.111" style="fill:none;stroke-width:0.050000mm;stroke:black"/>
<polygon points="115.842,81.898 115.054,81.759 114.516,84.812 115.304,84.951 114.297,90.663 113.509,90.524 112.971,93.577 113.758,93.716 113.585,94.701 127.372,97.132 127.546,96.147 128.334,96.286 128.872,93.233 128.084,93.094 129.091,87.382 129.878,87.521 130.417,84.468 129.629,84.329 129.802,83.344 116.016,80.913" style="fill:none;stroke-width:0.050000mm;stroke:black"/>
<polygon points="272.271,81.234 272.444,82.219 271.657,82.358 272.195,85.411 272.983,85.272 273.990,90.984 273.202,91.123 273.740,94.176 274.528,94.037 274.702,95.022 288.489,92.591 288.315,91.606 289.103,91.467 288.565,88.414 287.777,88.553 286.770,82.841 287.558,82.702 287.020,79.649 286.232,79.788 286.058,78.803" style="fill:none;stroke-width:0.050000mm;stroke:black"/>
<polygon points="97.082,78.590 96.294,78.451 95.755,81.504 96.543,81.643 95.536,87.355 94.748,87.216 94.210,90.269 94.998,90.408 94.824,91.393 108.612,93.824 108.785,92.839 109.573,92.978 110.111,89.925 109.323,89.786 110.331,84.074 111.118,84.213 111.657,81.160 110.869,81.021 111.043,80.036 97.255,77.605" style="fill:none;stroke-width:0.050000mm;stroke:black"/>
<polygon points="343.758,77.533 343.758,78.533 342.958,78.533 342.958,81.633 343.758,81.633 343.758,82.233 342.233,82.233 342.233,79.003 340.508,79.003 340.508,78.083 337.208,78.083 337.208,79.003 335.483,79.003 335.483,82.233 334.658,82.233 334.658,85.033 335.483,85.033 335.483,91.303 337.208,91.303 337.208,92.283 340.508,92.283 340.508,91.303 342.233,91.303 342.233,86.833 343.758,86.833 343.758,87.433 342.958,87.433 342.958,90.533 343.758,90.533 343.758,91.533 357.758,91.533 357.758,90.533 358.558,90.533 358.558,87.433 357.758,87.433 357.758,86.833 359.283,86.833 359.283,91.303 361.008,91.303 361.008,92.283 364.308,92.283 364.308,91.303 366.033,91.303 366.033,85.033 366.858,85.033 366.858,82.233 366.033,82.233 366.033,79.003 364.308,79.003 364.308,78.083 361.008,78.083 361.008,79.003 359.283,79.003 359.283,82.233 357.758,82.233 357.758,81.633 358.558,81.633 358.558,78.533 357.758,78.533 357.758,77.533" style="fill:none;stroke-width:0.050000mm;stroke:black"/>
<polygon points="17.051,77.533 17.051,78.533 16.251,78.533 16.251,81.633 17.051,81.633 17.051,87.433 16.251,87.433 16.251,90.533 17.051,90.533 17.051,91.533 31.051,91.533 31.051,90.533 31.851,90.533 31.851,87.433 31.051,87.433 31.051,81.633 31.851,81.633 31.851,78.533 31.051,78.533 31.051,77.533" style="fill:none;stroke-width:0.050000mm;stroke:black"/>
<polygon points="49.436,77.533 49.436,78.533 48.636,78.533 48.636,81.633 49.436,81.633 49.436,87.433 48.636,87.433 48.636,90.533 49.436,90.533 49.436,91.533 63.436,91.533 63.436,90.533 64.236,90.533 64.236,87.433 63.436,87.433 63.436,81.633 64.236,81.633 64.236,78.533 63.436,78.533 63.436,77.533" style="fill:none;stroke-width:0.050000mm;stroke:black"/>
<polygon points="75.629,77.533 75.629,78.533 74.829,78.533 74.829,81.633 75.629,81.633 75.629,87.433 74.829,87.433 74.829,90.533 75.629,90.533 75.629,91.533 89.629,91.533 89.629,90.533 90.429,90.533 90.429,87.433 89.629,87.433 89.629,81.633 90.429,81.633 90.429,78.533 89.629,78.533 89.629,77.533" style="fill:none;stroke-width:0.050000mm;stroke:black"/>
<polygon points="293.752,77.533 293.752,78.533 292.952,78.533 292.952,81.633 293.752,81.633 293.752,87.433 292.952,87.433 292.952,90.533 293.752,90.533 293.752,91.533 307.752,91.533 307.752,90.533 308.552,90.533 308.552,87.433 307.752,87.433 307.752,81.633 308.552,81.633 308.552,78.533 307.752,78.533 307.752,77.533" style="fill:none;stroke-width:0.050000mm;stroke:black"/>
<polygon points="312.802,77.533 312.802,78.533 312.002,78.533 312.002,81.633 312.802,81.633 312.802,87.433 312.002,87.433 312.002,90.533 312.802,90.533 312.802,91.533 326.802,91.533 326.802,90.533 327.602,90.533 327.602,87.433 326.802,87.433 326.802,81.633 327.602,81.633 327.602,78.533 326.802,78.533 326.802,77.533" style="fill:none;stroke-width:0.050000mm;stroke:black"/>
<polygon points="379.477,77.533 379.477,78.533 378.677,78.533 378.677,81.633 379.477,81.633 379.477,87.433 378.677,87.433 378.677,90.533 379.477,90.533 379.477,91.533 393.477,91.533 393.477,90.533 394.277,90.533 394.277,87.433 393.477,87.433 393.477,81.633 394.277,81.633 394.277,78.533 393.477,78.533 393.477,77.533" style="fill:none;stroke-width:0.050000mm;stroke:black"/>
<polygon points="206.609,73.762 206.782,74.747 205.994,74.886 206.533,77.939 207.321,77.800 208.328,83.512 207.540,83.651 208.078,86.704 208.866,86.565 209.040,87.550 222.827,85.119 222.653,84.134 223.441,83.995 222.903,80.942 222.115,81.081 221.108,75.369 221.896,75.230 221.357,72.177 220.570,72.316 220.396,71.331" style="fill:none;stroke-width:0.050000mm;stroke:black"/>
<polygon points="151.909,69.208 151.122,69.069 150.583,72.122 151.371,72.261 150.364,77.972 149.576,77.834 149.038,80.886 149.826,81.025 149.652,82.010 163.439,84.441 163.613,83.456 164.401,83.595 164.939,80.542 164.151,80.403 165.158,74.692 165.946,74.831 166.485,71.778 165.697,71.639 165.870,70.654 152.083,68.223" style="fill:none;stroke-width:0.050000mm;stroke:black"/>
<polygon points="225.369,70.454 225.543,71.439 224.755,71.578 225.293,74.631 226.081,74.492 227.088,80.204 226.301,80.343 226.839,83.396 227.627,83.257 227.800,84.242 241.588,81.811 241.414,80.826 242.202,80.687 241.664,77.634 240.876,77.773 239.869,72.061 240.656,71.922 240.118,68.869 239.330,69.008 239.157,68.023" style="fill:none;stroke-width:0.050000mm;stroke:black"/>
<polygon points="133.149,65.900 132.361,65.761 131.823,68.814 132.611,68.953 131.603,74.664 130.816,74.526 130.277,77.578 131.065,77.717 130.890,78.702 144.679,81.133 144.852,80.148 145.640,80.287 146.179,77.234 145.391,77.095 146.398,71.384 147.186,71.523 147.724,68.470 146.936,68.331 147.110,67.346 133.323,64.915" style="fill:none;stroke-width:0.050000mm;stroke:black"/>
<polygon points="244.130,67.146 244.303,68.131 243.516,68.270 244.054,71.323 244.842,71.184 245.849,76.896 245.061,77.035 245.599,80.088 246.387,79.949 246.561,80.934 260.347,78.503 260.174,77.518 260.962,77.379 260.424,74.326 259.636,74.465 258.629,68.753 259.417,68.614 258.879,65.561 258.090,65.700 257.917,64.715" style="fill:none;stroke-width:0.050000mm;stroke:black"/>
<polygon points="114.388,62.592 113.600,62.453 113.062,65.505 113.850,65.645 112.843,71.356 112.055,71.218 111.517,74.270 112.304,74.409 112.131,75.394 125.918,77.825 126.092,76.840 126.880,76.979 127.418,73.926 126.630,73.788 127.637,68.076 128.425,68.215 128.962,65.162 128.176,65.023 128.349,64.038 114.562,61.607" style="fill:none;stroke-width:0.050000mm;stroke:black"/>
<polygon points="262.890,63.838 263.064,64.823 262.276,64.962 262.815,68.015 263.602,67.876 264.610,73.588 263.822,73.727 264.360,76.780 265.148,76.641 265.322,77.626 279.109,75.195 278.935,74.210 279.723,74.071 279.185,71.018 278.397,71.157 277.390,65.445 278.178,65.306 277.639,62.253 276.851,62.392 276.678,61.407" style="fill:none;stroke-width:0.050000mm;stroke:black"/>
<polygon points="95.628,59.284 94.840,59.145 94.302,62.198 95.089,62.337 94.082,68.048 93.294,67.910 92.756,70.962 93.544,71.101 93.370,72.086 107.158,74.517 107.331,73.532 108.119,73.671 108.657,70.618 107.870,70.480 108.877,64.767 109.665,64.907 110.203,61.854 109.415,61.715 109.589,60.730 95.801,58.299" style="fill:none;stroke-width:0.050000mm;stroke:black"/>
<polygon points="281.651,60.530 281.825,61.515 281.037,61.654 281.575,64.707 282.363,64.567 283.370,70.280 282.582,70.419 283.121,73.472 283.908,73.333 284.082,74.318 297.869,71.887 297.696,70.902 298.484,70.763 297.945,67.710 297.157,67.849 296.150,62.137 296.938,61.998 296.400,58.945 295.612,59.084 295.438,58.099" style="fill:none;stroke-width:0.050000mm;stroke:black"/>
<polygon points="17.051,58.483 17.051,59.483 16.251,59.483 16.251,62.583 17.051,62.583 17.051,68.383 16.251,68.383 16.251,71.483 17.051,71.483 17.051,72.483 31.051,72.483 31.051,71.483 31.851,71.483 31.851,68.383 31.051,68.383 31.051,62.583 31.851,62.583 31.851,59.483 31.051,59.483 31.051,58.483" style="fill:none;stroke-width:0.050000mm;stroke:black"/>
<polygon points="50.388,58.483 50.388,59.483 49.588,59.483 49.588,62.583 50.388,62.583 50.388,68.383 49.588,68.383 49.588,71.483 50.388,71.483 50.388,72.483 64.388,72.483 64.388,71.483 65.188,71.483 65.188,68.383 64.388,68.383 64.388,62.583 65.188,62.583 65.188,59.483 64.388,59.483 64.388,58.483" style="fill:none;stroke-width:0.050000mm;stroke:black"/>
<polygon points="74.201,58.483 74.201,59.483 73.401,59.483 73.401,62.583 74.201,62.583 74.201,68.383 73.401,68.383 73.401,71.483 74.201,71.483 74.201,72.483 88.201,72.483 88.201,71.483 89.001,71.483 89.001,68.383 88.201,68.383 88.201,62.583 89.001,62.583 89.001,59.483 88.201,59.483 88.201,58.483" style="fill:none;stroke-width:0.050000mm;stroke:black"/>
<polygon points="303.086,58.483 303.086,59.483 302.286,59.483 302.286,62.583 303.086,62.583 303.086,68.383 302.286,68.383 302.286,71.483 303.086,71.483 303.086,72.483 317.086,72.483 317.086,71.483 317.886,71.483 317.886,68.383 317.086,68.383 317.086,62.583 317.886,62.583 317.886,59.483 317.086,59.483 317.086,58.483" style="fill:none;stroke-width:0.050000mm;stroke:black"/>
<polygon points="322.136,58.483 322.136,59.483 321.336,59.483 321.336,62.583 322.136,62.583 322.136,68.383 321.336,68.383 321.336,71.483 322.136,71.483 322.136,72.483 336.136,72.483 336.136,71.483 336.936,71.483 336.936,68.383 336.136,68.383 336.136,62.583 336.936,62.583 336.936,59.483 336.136,59.483 336.136,58.483" style="fill:none;stroke-width:0.050000mm;stroke:black"/>
<polygon points="345.949,58.483 345.949,59.483 345.149,59.483 345.149,62.583 345.949,62.583 345.949,68.383 345.149,68.383 345.149,71.483 345.949,71.483 345.949,72.483 359.949,72.483 359.949,71.483 360.749,71.483 360.749,68.383 359.949,68.383 359.949,62.583 360.749,62.583 360.749,59.483 359.949,59.483 359.949,58.483" style="fill:none;stroke-width:0.050000mm;stroke:black"/>
<polygon points="379.286,58.483 379.286,59.483 378.486,59.483 378.486,62.583 379.286,62.583 379.286,68.383 378.486,68.383 378.486,71.483 379.286,71.483 379.286,72.483 393.286,72.483 393.286,71.483 394.086,71.483 394.086,68.383 393.286,68.383 393.286,62.583 394.086,62.583 394.086,59.483 393.286,59.483 393.286,58.483" style="fill:none;stroke-width:0.050000mm;stroke:black"/>
<polygon points="166.027,52.647 165.239,52.508 164.701,55.561 165.488,55.700 164.481,61.412 163.693,61.273 163.155,64.326 163.943,64.465 163.769,65.448 177.557,67.880 177.730,66.896 178.518,67.035 179.056,63.982 178.269,63.843 179.276,58.131 180.064,58.270 180.602,55.217 179.814,55.078 179.988,54.093 166.200,51.662" style="fill:none;stroke-width:0.050000mm;stroke:black"/>
<polygon points="212.237,53.720 212.410,54.705 211.623,54.844 212.161,57.897 212.949,57.758 213.956,63.470 213.168,63.608 213.706,66.661 214.494,66.522 214.668,67.507 228.455,65.076 228.282,64.091 229.069,63.952 228.531,60.900 227.743,61.038 226.736,55.327 227.524,55.188 226.986,52.135 226.198,52.274 226.024,51.289" style="fill:none;stroke-width:0.050000mm;stroke:black"/>
<polygon points="147.266,49.339 146.478,49.200 145.940,52.253 146.728,52.392 145.721,58.104 144.933,57.965 144.395,61.018 145.182,61.157 145.009,62.141 158.796,64.572 158.970,63.588 159.758,63.727 160.296,60.674 159.508,60.535 160.515,54.823 161.303,54.962 161.841,51.909 161.054,51.770 161.227,50.785 147.440,48.354" style="fill:none;stroke-width:0.050000mm;stroke:black"/>
<polygon points="230.997,50.412 231.171,51.397 230.383,51.536 230.922,54.589 231.709,54.450 232.717,60.162 231.929,60.300 232.467,63.353 233.255,63.214 233.429,64.198 247.216,61.768 247.042,60.783 247.830,60.644 247.292,57.592 246.504,57.730 245.497,52.019 246.285,51.880 245.746,48.827 244.958,48.966 244.785,47.981" style="fill:none;stroke-width:0.050000mm;stroke:black"/>
<polygon points="128.506,46.031 127.718,45.892 127.179,48.945 127.967,49.084 126.960,54.796 126.172,54.657 125.634,57.710 126.422,57.849 126.248,58.833 140.035,61.264 140.209,60.280 140.997,60.419 141.535,57.366 140.747,57.227 141.755,51.515 142.542,51.654 143.081,48.601 142.293,48.462 142.467,47.477 128.679,45.046" style="fill:none;stroke-width:0.050000mm;stroke:black"/>
<polygon points="249.758,47.104 249.932,48.089 249.144,48.228 249.682,51.281 250.470,51.142 251.477,56.854 250.689,56.992 251.228,60.045 252.015,59.906 252.189,60.891 265.976,58.460 265.803,57.475 266.591,57.336 266.052,54.284 265.264,54.422 264.257,48.711 265.045,48.572 264.507,45.519 263.719,45.658 263.545,44.673" style="fill:none;stroke-width:0.050000mm;stroke:black"/>
<polygon points="109.745,42.723 108.957,42.584 108.419,45.637 109.207,45.776 108.200,51.488 107.412,51.349 106.873,54.402 107.661,54.541 107.488,55.525 121.275,57.956 121.449,56.972 122.236,57.111 122.775,54.058 121.987,53.919 122.994,48.207 123.782,48.346 124.320,45.293 123.532,45.154 123.706,44.169 109.919,41.738" style="fill:none;stroke-width:0.050000mm;stroke:black"/>
<polygon points="268.519,43.796 268.692,44.781 267.904,44.920 268.443,47.973 269.231,47.834 270.238,53.546 269.450,53.684 269.988,56.737 270.776,56.598 270.950,57.583 284.737,55.152 284.563,54.167 285.351,54.028 284.813,50.976 284.025,51.114 283.018,45.403 283.806,45.264 283.267,42.211 282.480,42.350 282.306,41.365" style="fill:none;stroke-width:0.050000mm;stroke:black"/>
<polygon points="339.472,39.433 339.472,40.433 338.672,40.433 338.672,43.533 339.472,43.533 339.472,44.133 337.947,44.133 337.947,40.903 336.222,40.903 336.222,39.983 332.922,39.983 332.922,40.903 331.197,40.903 331.197,44.133 330.372,44.133 330.372,46.933 331.197,46.933 331.197,53.203 332.922,53.203 332.922,54.183 336.222,54.183 336.222,53.203 337.947,53.203 337.947,48.733 339.472,48.733 339.472,49.333 338.672,49.333 338.672,52.433 339.472,52.433 339.472,53.433 353.472,53.433 353.472,52.433 354.272,52.433 354.272,49.333 353.472,49.333 353.472,48.733 354.997,48.733 354.997,53.203 356.722,53.203 356.722,54.183 360.022,54.183 360.022,53.203 361.747,53.203 361.747,46.933 362.572,46.933 362.572,44.133 361.747,44.133 361.747,40.903 360.022,40.903 360.022,39.983 356.722,39.983 356.722,40.903 354.997,40.903 354.997,44.133 353.472,44.133 353.472,43.533 354.272,43.533 354.272,40.433 353.472,40.433 353.472,39.433" style="fill:none;stroke-width:0.050000mm;stroke:black"/>
<polygon points="17.051,39.433 17.051,40.433 16.251,40.433 16.251,43.533 17.051,43.533 17.051,49.333 16.251,49.333 16.251,52.433 17.051,52.433 17.051,53.433 31.051,53.433 31.051,52.433 31.851,52.433 31.851,49.333 31.051,49.333 31.051,43.533 31.851,43.533 31.851,40.433 31.051,40.433 31.051,39.433" style="fill:none;stroke-width:0.050000mm;stroke:black"/>
<polygon points="50.388,39.433 50.388,40.433 49.588,40.433 49.588,43.533 50.388,43.533 50.388,49.333 49.588,49.333 49.588,52.433 50.388,52.433 50.388,53.433 64.388,53.433 64.388,52.433 65.188,52.433 65.188,49.333 64.388,49.333 64.388,43.533 65.188,43.533 65.188,40.433 64.388,40.433 64.388,39.433" style="fill:none;stroke-width:0.050000mm;stroke:black"/>
<polygon points="69.438,39.433 69.438,40.433 68.638,40.433 68.638,43.533 69.438,43.533 69.438,49.333 68.638,49.333 68.638,52.433 69.438,52.433 69.438,53.433 83.438,53.433 83.438,52.433 84.238,52.433 84.238,49.333 83.438,49.333 83.438,43.533 84.238,43.533 84.238,40.433 83.438,40.433 83.438,39.433" style="fill:none;stroke-width:0.050000mm;stroke:black"/>
<polygon points="308.516,39.433 308.516,40.433 307.716,40.433 307.716,43.533 308.516,43.533 308.516,49.333 307.716,49.333 307.716,52.433 308.516,52.433 308.516,53.433 322.516,53.433 322.516,52.433 323.316,52.433 323.316,49.333 322.516,49.333 322.516,43.533 323.316,43.533 323.316,40.433 322.516,40.433 322.516,39.433" style="fill:none;stroke-width:0.050000mm;stroke:black"/>
<polygon points="379.001,39.433 379.001,40.433 378.201,40.433 378.201,43.533 379.001,43.533 379.001,49.333 378.201,49.333 378.201,52.433 379.001,52.433 379.001,53.433 393.001,53.433 393.001,52.433 393.801,52.433 393.801,49.333 393.001,49.333 393.001,43.533 393.801,43.533 393.801,40.433 393.001,40.433 393.001,39.433" style="fill:none;stroke-width:0.050000mm;stroke:black"/>
<polygon points="289.192,39.320 289.236,40.320 288.437,40.354 288.572,43.451 289.371,43.417 289.624,49.211 288.825,49.246 288.960,52.343 289.759,52.308 289.803,53.307 303.790,52.696 303.746,51.697 304.545,51.663 304.410,48.565 303.611,48.600 303.358,42.806 304.157,42.771 304.022,39.674 303.223,39.709 303.179,38.710" style="fill:none;stroke-width:0.050000mm;stroke:black"/>
<polygon points="89.284,39.587 88.485,39.552 88.350,42.649 89.149,42.684 88.896,48.479 88.097,48.444 87.962,51.541 88.761,51.576 88.717,52.575 102.704,53.186 102.748,52.187 103.547,52.221 103.682,49.124 102.883,49.089 103.136,43.295 103.935,43.330 104.070,40.233 103.271,40.198 103.315,39.199 89.328,38.588" style="fill:none;stroke-width:0.050000mm;stroke:black"/>
<polygon points="165.926,30.254 165.138,30.115 164.600,33.168 165.388,33.307 164.380,39.019 163.593,38.880 163.054,41.933 163.842,42.072 163.668,43.056 177.456,45.487 177.629,44.503 178.417,44.642 178.956,41.589 178.168,41.450 179.175,35.738 179.963,35.877 180.501,32.824 179.713,32.684 179.887,31.700 166.100,29.269" style="fill:none;stroke-width:0.050000mm;stroke:black"/>
<polygon points="217.476,30.860 217.649,31.845 216.861,31.984 217.400,35.037 218.188,34.898 219.195,40.610 218.407,40.748 218.945,43.801 219.733,43.662 219.907,44.647 233.694,42.216 233.520,41.231 234.308,41.092 233.770,38.040 232.982,38.178 231.975,32.467 232.763,32.328 232.224,29.275 231.437,29.414 231.263,28.429" style="fill:none;stroke-width:0.050000mm;stroke:black"/>
<polygon points="147.165,26.946 146.377,26.807 145.839,29.860 146.627,29.999 145.620,35.711 144.832,35.572 144.294,38.625 145.082,38.764 144.908,39.748 158.695,42.179 158.869,41.195 159.657,41.334 160.195,38.281 159.407,38.142 160.414,32.430 161.202,32.568 161.740,29.516 160.953,29.377 161.126,28.392 147.339,25.961" style="fill:none;stroke-width:0.050000mm;stroke:black"/>
<polygon points="236.236,27.552 236.410,28.537 235.622,28.676 236.160,31.729 236.948,31.590 237.955,37.302 237.167,37.440 237.706,40.493 238.494,40.354 238.667,41.339 252.455,38.908 252.281,37.923 253.069,37.784 252.530,34.732 251.743,34.870 250.735,29.159 251.523,29.020 250.985,25.967 250.197,26.106 250.023,25.121" style="fill:none;stroke-width:0.050000mm;stroke:black"/>
<polygon points="124.653,22.976 123.865,22.837 123.326,25.890 124.114,26.029 123.107,31.741 122.319,31.602 121.781,34.655 122.569,34.794 122.395,35.779 136.183,38.210 136.356,37.225 137.144,37.364 137.682,34.311 136.894,34.172 137.902,28.460 138.689,28.599 139.228,25.546 138.440,25.407 138.614,24.423 124.826,21.991" style="fill:none;stroke-width:0.050000mm;stroke:black"/>
<polygon points="258.749,23.582 258.923,24.567 258.135,24.706 258.673,27.759 259.460,27.620 260.467,33.332 259.679,33.471 260.217,36.524 261.006,36.385 261.179,37.370 274.967,34.939 274.794,33.954 275.581,33.815 275.043,30.762 274.255,30.901 273.248,25.189 274.036,25.050 273.498,21.997 272.710,22.136 272.536,21.151" style="fill:none;stroke-width:0.050000mm;stroke:black"/>
<polygon points="105.892,19.668 105.104,19.529 104.566,22.582 105.354,22.721 104.347,28.433 103.559,28.294 103.020,31.347 103.808,31.486 103.635,32.471 117.422,34.902 117.596,33.917 118.383,34.056 118.922,31.003 118.134,30.864 119.141,25.152 119.929,25.291 120.467,22.238 119.679,22.099 119.853,21.115 106.066,18.683" style="fill:none;stroke-width:0.050000mm;stroke:black"/>
<polygon points="277.509,20.274 277.683,21.259 276.895,21.398 277.434,24.451 278.221,24.312 279.229,30.024 278.441,30.163 278.979,33.216 279.767,33.077 279.941,34.062 293.728,31.631 293.554,30.646 294.342,30.507 293.804,27.454 293.016,27.593 292.009,21.881 292.797,21.742 292.258,18.689 291.470,18.828 291.297,17.843" style="fill:none;stroke-width:0.050000mm;stroke:black"/>
<polygon points="45.626,17.526 45.626,18.526 44.826,18.526 44.826,21.626 45.626,21.626 45.626,27.425 44.826,27.425 44.826,30.526 45.626,30.526 45.626,31.526 59.626,31.526 59.626,30.526 60.426,30.526 60.426,27.425 59.626,27.425 59.626,21.626 60.426,21.626 60.426,18.526 59.626,18.526 59.626,17.526" style="fill:none;stroke-width:0.050000mm;stroke:black"/>
<polygon points="64.676,17.526 64.676,18.526 63.876,18.526 63.876,21.626 64.676,21.626 64.676,27.425 63.876,27.425 63.876,30.526 64.676,30.526 64.676,31.526 78.676,31.526 78.676,30.526 79.476,30.526 79.476,27.425 78.676,27.425 78.676,21.626 79.476,21.626 79.476,18.526 78.676,18.526 78.676,17.526" style="fill:none;stroke-width:0.050000mm;stroke:black"/>
<polygon points="83.726,17.526 83.726,18.526 82.926,18.526 82.926,21.626 83.726,21.626 83.726,27.425 82.926,27.425 82.926,30.526 83.726,30.526 83.726,31.526 97.726,31.526 97.726,30.526 98.525,30.526 98.525,27.425 97.726,27.425 97.726,21.626 98.525,21.626 98.525,18.526 97.726,18.526 97.726,17.526" style="fill:none;stroke-width:0.050000mm;stroke:black"/>
<polygon points="299.943,17.526 299.943,18.526 299.143,18.526 299.143,21.626 299.943,21.626 299.943,27.425 299.143,27.425 299.143,30.526 299.943,30.526 299.943,31.526 313.943,31.526 313.943,30.526 314.743,30.526 314.743,27.425 313.943,27.425 313.943,21.626 314.743,21.626 314.743,18.526 313.943,18.526 313.943,17.526" style="fill:none;stroke-width:0.050000mm;stroke:black"/>
<polygon points="318.993,17.526 318.993,18.526 318.193,18.526 318.193,21.626 318.993,21.626 318.993,27.425 318.193,27.425 318.193,30.526 318.993,30.526 318.993,31.526 332.993,31.526 332.993,30.526 333.793,30.526 333.793,27.425 332.993,27.425 332.993,21.626 333.793,21.626 333.793,18.526 332.993,18.526 332.993,17.526" style="fill:none;stroke-width:0.050000mm;stroke:black"/>
<polygon points="340.901,17.526 340.901,18.526 340.100,18.526 340.100,21.626 340.901,21.626 340.901,27.425 340.100,27.425 340.100,30.526 340.901,30.526 340.901,31.526 354.901,31.526 354.901,30.526 355.701,30.526 355.701,27.425 354.901,27.425 354.901,21.626 355.701,21.626 355.701,18.526 354.901,18.526 354.901,17.526" style="fill:none;stroke-width:0.050000mm;stroke:black"/>
<polygon points="359.951,17.526 359.951,18.526 359.151,18.526 359.151,21.626 359.951,21.626 359.951,27.425 359.151,27.425 359.151,30.526 359.951,30.526 359.951,31.526 373.951,31.526 373.951,30.526 374.751,30.526 374.751,27.425 373.951,27.425 373.951,21.626 374.751,21.626 374.751,18.526 373.951,18.526 373.951,17.526" style="fill:none;stroke-width:0.050000mm;stroke:black"/>
<polygon points="379.001,17.526 379.001,18.526 378.201,18.526 378.201,21.626 379.001,21.626 379.001,27.425 378.201,27.425 378.201,30.526 379.001,30.526 379.001,31.526 393.001,31.526 393.001,30.526 393.801,30.526 393.801,27.425 393.001,27.425 393.001,21.626 393.801,21.626 393.801,18.526 393.001,18.526 393.001,17.526" style="fill:none;stroke-width:0.050000mm;stroke:black"/>
</svg>
